<svg width="360" height="180" viewBox="0 0 360 180" fill="none" xmlns="http://www.w3.org/2000/svg">
  <rect width="360" height="180" fill="white"/>
  <g transform="translate(48 24)">
    <path d="M86 18C47.34 18 16 49.34 16 88C16 126.66 47.34 158 86 158C115.32 158 140.45 139.99 150.9 114.42H114.52C107.19 122.4 96.67 127.4 85 127.4C66.55 127.4 50.99 114.95 46.29 98H127.3L151.9 73.4H46.29C50.99 56.45 66.55 44 85 44C97.58 44 108.81 49.8 116.16 58.87H150.55C139.91 34.79 115.81 18 86 18Z" fill="#132060"/>
    <path d="M210 18C171.34 18 140 49.34 140 88C140 126.66 171.34 158 210 158C239.32 158 264.45 139.99 274.9 114.42H238.52C231.19 122.4 220.67 127.4 209 127.4C190.55 127.4 174.99 114.95 170.29 98H251.3V73.4H170.29C174.99 56.45 190.55 44 209 44C221.58 44 232.81 49.8 240.16 58.87H274.55C263.91 34.79 239.81 18 210 18Z" fill="#5CB800"/>
    <path d="M154 76L189 42L176 100L141 134L154 76Z" fill="white"/>
    <path d="M157 75L186 47L174 96L145 125L157 75Z" fill="#132060"/>
  </g>
</svg>
