<svg xmlns="http://www.w3.org/2000/svg" viewBox="0 0 1600 700" role="img" aria-labelledby="title desc"><title id="title">Windenergieprojekt</title><desc id="desc">Windkraftanlagen in einer offenen hellen Landschaft</desc><defs><linearGradient id="sky" x1="0" y1="0" x2="0" y2="1"><stop offset="0" stop-color="#edf7fb"/><stop offset="1" stop-color="#cfe3ee"/></linearGradient><linearGradient id="land" x1="0" y1="0" x2="1" y2="0"><stop offset="0" stop-color="#dcebd3"/><stop offset="1" stop-color="#b9d19f"/></linearGradient></defs><rect width="1600" height="700" fill="url(#sky)"/><circle cx="1320" cy="115" r="115" fill="#ffffff" opacity=".8"/><path d="M0 475 C300 410 560 530 830 460 C1090 395 1340 440 1600 385 V700 H0Z" fill="url(#land)"/><g stroke="#ffffff" stroke-width="18" stroke-linecap="round" fill="none"><path d="M1030 520 L1030 238"/><circle cx="1030" cy="230" r="14" fill="#ffffff"/><path d="M1030 230 L916 164"/><path d="M1030 230 L1144 164"/><path d="M1030 230 L1030 98"/><path d="M1310 510 L1310 305"/><circle cx="1310" cy="298" r="11" fill="#ffffff"/><path d="M1310 298 L1223 248"/><path d="M1310 298 L1397 248"/><path d="M1310 298 L1310 198"/></g><text x="90" y="150" font-family="Arial, sans-serif" font-size="64" font-weight="700" fill="#0b1633">Windenergie</text><text x="94" y="215" font-family="Arial, sans-serif" font-size="28" fill="#43536d">Nachhaltige Erzeugung mit langfristigem Infrastrukturwert</text></svg>