<svg xmlns="http://www.w3.org/2000/svg" viewBox="0 0 1600 700" role="img" aria-labelledby="title desc"><title id="title">Batteriespeicher</title><desc id="desc">Moderner Batteriespeicher in einer hellen Energielandschaft</desc><defs><linearGradient id="bg" x1="0" y1="0" x2="1" y2="1"><stop offset="0" stop-color="#eef5f8"/><stop offset="1" stop-color="#cfdce6"/></linearGradient><linearGradient id="battery" x1="0" y1="0" x2="0" y2="1"><stop offset="0" stop-color="#1f2a44"/><stop offset="1" stop-color="#0b1633"/></linearGradient></defs><rect width="1600" height="700" fill="url(#bg)"/><circle cx="1320" cy="110" r="150" fill="#ffffff" opacity=".7"/><path d="M0 510 C280 430 520 565 820 490 C1080 430 1330 460 1600 390 V700 H0Z" fill="#dbe8d2"/><g transform="translate(790 165)"><rect x="0" y="0" width="245" height="370" rx="24" fill="url(#battery)"/><rect x="28" y="36" width="189" height="95" rx="12" fill="#ffffff" opacity=".96"/><rect x="28" y="155" width="189" height="48" rx="9" fill="#18263f" stroke="#5cb800" stroke-width="5"/><rect x="28" y="222" width="189" height="48" rx="9" fill="#18263f" stroke="#5cb800" stroke-width="5"/><rect x="28" y="289" width="189" height="48" rx="9" fill="#18263f" stroke="#5cb800" stroke-width="5"/><path d="M117 58 L78 103 H110 L95 134 L160 82 H126 L142 58Z" fill="#5cb800"/></g><g opacity=".35" stroke="#1f2a44" stroke-width="8"><path d="M1035 390 H1390"/><path d="M1170 275 V510"/></g><text x="90" y="150" font-family="Arial, sans-serif" font-size="64" font-weight="700" fill="#0b1633">Batteriespeicher</text><text x="94" y="215" font-family="Arial, sans-serif" font-size="28" fill="#43536d">Flexible Energieinfrastruktur für moderne Strommärkte</text></svg>